<svg width="100" height="100" xmlns="http://www.w3.org/2000/svg">

 <g>
  <title>background</title>
  <rect fill="none" id="canvas_background" height="402" width="582" y="-1" x="-1"/>
 </g>
 <g>
  <title>Layer 1</title>
  <path fill="#c14026" id="svg_1" d="m36.25,35c6.203,0 11.25,-5.607 11.25,-12.5s-5.047,-12.5 -11.25,-12.5s-11.25,5.607 -11.25,12.5s5.047,12.5 11.25,12.5zm0,-20c3.446,0 6.25,3.364 6.25,7.5s-2.804,7.5 -6.25,7.5s-6.25,-3.364 -6.25,-7.5s2.804,-7.5 6.25,-7.5z"/>
  <path fill="#c14026" id="svg_2" d="m16.25,55c6.203,0 11.25,-5.607 11.25,-12.5s-5.047,-12.5 -11.25,-12.5s-11.25,5.607 -11.25,12.5s5.047,12.5 11.25,12.5zm0,-20c3.446,0 6.25,3.364 6.25,7.5s-2.804,7.5 -6.25,7.5s-6.25,-3.364 -6.25,-7.5s2.804,-7.5 6.25,-7.5z"/>
  <path fill="#c14026" id="svg_3" d="m83.75,30c-6.203,0 -11.25,5.607 -11.25,12.5s5.047,12.5 11.25,12.5s11.25,-5.607 11.25,-12.5s-5.047,-12.5 -11.25,-12.5zm0,20c-3.446,0 -6.25,-3.364 -6.25,-7.5s2.804,-7.5 6.25,-7.5s6.25,3.364 6.25,7.5s-2.804,7.5 -6.25,7.5z"/>
  <path fill="#c14026" id="svg_4" d="m63.75,35c6.203,0 11.25,-5.607 11.25,-12.5s-5.047,-12.5 -11.25,-12.5s-11.25,5.607 -11.25,12.5s5.047,12.5 11.25,12.5zm0,-20c3.446,0 6.25,3.364 6.25,7.5s-2.804,7.5 -6.25,7.5s-6.25,-3.364 -6.25,-7.5s2.804,-7.5 6.25,-7.5z"/>
  <path fill="#c14026" id="svg_5" d="m34.443,46.946l-10.387,12.984c-2.626,3.282 -4.056,7.36 -4.056,11.562c0,10.222 8.286,18.508 18.508,18.508l22.984,0c10.222,0 18.508,-8.286 18.508,-18.508c0,-4.203 -1.43,-8.28 -4.056,-11.562l-10.387,-12.984c-3.512,-4.39 -8.83,-6.946 -14.452,-6.946l-2.209,0c-5.623,0 -10.941,2.556 -14.453,6.946zm14.452,0.554l2.209,0c3.362,0 6.495,1.506 8.596,4.131l10.388,12.984c1.556,1.944 2.412,4.387 2.412,6.877c0,6.07 -4.938,11.008 -11.008,11.008l-22.984,0c-6.07,0 -11.008,-4.938 -11.008,-11.008c0,-2.49 0.857,-4.932 2.412,-6.877l10.388,-12.984c2.1,-2.625 5.233,-4.131 8.595,-4.131z"/>
 </g>
</svg>